<?xml version='1.0' encoding='UTF-8'?>
<mxfile host="Electron" version="25.0.2">
  <diagram name="Hub and Spoke Topology">
    <mxGraphModel dx="371" dy="1462" grid="0" gridSize="10" guides="1" tooltips="1" connect="1" arrows="1" fold="1" page="0" pageScale="1" pageWidth="827" pageHeight="1169" background="#ffffff" math="0" shadow="0">
      <root>
        <mxCell id="0"/>
        <mxCell id="1" parent="0"/>
        <mxCell id="hub_0_group" value="" style="group" vertex="1" connectable="0" parent="1">
          <mxGeometry x="470" y="20" width="400" height="70" as="geometry"/>
        </mxCell>
        <mxCell id="hub_0" style="shape=rectangle;rounded=0;whiteSpace=wrap;html=1;strokeColor=#0078D4;fontColor=#004578;fillColor=#E6F1FB;align=left" vertex="1" parent="hub_0_group" value="Subscription: Hub-Subscription&#10;hub-vnet&#10;10.0.0.0/16">
          <mxGeometry x="0" y="0" width="400" height="50" as="geometry"/>
        </mxCell>
        <mxCell id="hub_0_image" style="shape=image;html=1;image=img/lib/azure2/networking/Virtual_Networks.svg;" vertex="1" parent="hub_0">
          <mxGeometry x="374" y="3.39" width="20" height="20" as="geometry"/>
        </mxCell>
        <mxCell id="hub_0_expressroute_image" style="shape=image;html=1;image=img/lib/azure2/networking/ExpressRoute_Circuits.svg;" vertex="1" parent="hub_0">
          <mxGeometry x="349" y="3.39" width="20" height="20" as="geometry"/>
        </mxCell>
        <mxCell id="hub_0_firewall_image" style="shape=image;html=1;image=img/lib/azure2/networking/Firewalls.svg;" vertex="1" parent="hub_0">
          <mxGeometry x="324" y="3.39" width="20" height="20" as="geometry"/>
        </mxCell>
        <mxCell id="hub_0_vpn_image" style="shape=image;html=1;image=img/lib/azure2/networking/Virtual_Network_Gateways.svg;" vertex="1" parent="hub_0">
          <mxGeometry x="299" y="3.39" width="20" height="20" as="geometry"/>
        </mxCell>
        <mxCell id="right_spoke0_0_group" value="" style="group" vertex="1" connectable="0" parent="1">
          <mxGeometry x="920" y="70" width="400" height="70" as="geometry"/>
        </mxCell>
        <mxCell id="right_spoke0_0" style="shape=rectangle;rounded=0;whiteSpace=wrap;html=1;strokeColor=#CC6600;fontColor=#CC6600;fillColor=#f2f7fc;verticalAlign=top;align=left" vertex="1" parent="right_spoke0_0_group" value="Subscription: Spoke11-Subscription&#10;spoke11-vnet&#10;10.11.0.0/16">
          <mxGeometry x="0" y="0" width="400" height="50" as="geometry"/>
        </mxCell>
        <mxCell id="right_spoke0_0_image" style="shape=image;html=1;image=img/lib/azure2/networking/Virtual_Networks.svg;" vertex="1" parent="right_spoke0_0">
          <mxGeometry x="374" y="3.39" width="20" height="20" as="geometry"/>
        </mxCell>
        <mxCell id="edge_right_0_0" edge="1" source="hub_0" target="right_spoke0_0" style="edgeStyle=orthogonalEdgeStyle;rounded=1;strokeColor=#0078D4;strokeWidth=2;endArrow=block;startArrow=block;" parent="1">
          <mxGeometry relative="1" as="geometry">
            <Array as="points">
              <mxPoint x="770" y="95"/>
            </Array>
          </mxGeometry>
        </mxCell>
        <mxCell id="right_spoke0_1_group" value="" style="group" vertex="1" connectable="0" parent="1">
          <mxGeometry x="920" y="170" width="400" height="70" as="geometry"/>
        </mxCell>
        <mxCell id="right_spoke0_1" style="shape=rectangle;rounded=0;whiteSpace=wrap;html=1;strokeColor=#CC6600;fontColor=#CC6600;fillColor=#f2f7fc;verticalAlign=top;align=left" vertex="1" parent="right_spoke0_1_group" value="Subscription: Spoke12-Subscription&#10;spoke12-vnet&#10;10.12.0.0/16">
          <mxGeometry x="0" y="0" width="400" height="50" as="geometry"/>
        </mxCell>
        <mxCell id="right_spoke0_1_image" style="shape=image;html=1;image=img/lib/azure2/networking/Virtual_Networks.svg;" vertex="1" parent="right_spoke0_1">
          <mxGeometry x="374" y="3.39" width="20" height="20" as="geometry"/>
        </mxCell>
        <mxCell id="right_spoke0_1_firewall_image" style="shape=image;html=1;image=img/lib/azure2/networking/Firewalls.svg;" vertex="1" parent="right_spoke0_1">
          <mxGeometry x="349" y="3.39" width="20" height="20" as="geometry"/>
        </mxCell>
        <mxCell id="edge_right_0_1" edge="1" source="hub_0" target="right_spoke0_1" style="edgeStyle=orthogonalEdgeStyle;rounded=1;strokeColor=#0078D4;strokeWidth=2;endArrow=block;startArrow=block;" parent="1">
          <mxGeometry relative="1" as="geometry">
            <Array as="points">
              <mxPoint x="770" y="195"/>
            </Array>
          </mxGeometry>
        </mxCell>
        <mxCell id="right_spoke0_2_group" value="" style="group" vertex="1" connectable="0" parent="1">
          <mxGeometry x="920" y="270" width="400" height="70" as="geometry"/>
        </mxCell>
        <mxCell id="right_spoke0_2" style="shape=rectangle;rounded=0;whiteSpace=wrap;html=1;strokeColor=#CC6600;fontColor=#CC6600;fillColor=#f2f7fc;verticalAlign=top;align=left" vertex="1" parent="right_spoke0_2_group" value="Subscription: Spoke13-Subscription&#10;spoke13-vnet&#10;10.13.0.0/16">
          <mxGeometry x="0" y="0" width="400" height="50" as="geometry"/>
        </mxCell>
        <mxCell id="right_spoke0_2_image" style="shape=image;html=1;image=img/lib/azure2/networking/Virtual_Networks.svg;" vertex="1" parent="right_spoke0_2">
          <mxGeometry x="374" y="3.39" width="20" height="20" as="geometry"/>
        </mxCell>
        <mxCell id="edge_right_0_2" edge="1" source="hub_0" target="right_spoke0_2" style="edgeStyle=orthogonalEdgeStyle;rounded=1;strokeColor=#0078D4;strokeWidth=2;endArrow=block;startArrow=block;" parent="1">
          <mxGeometry relative="1" as="geometry">
            <Array as="points">
              <mxPoint x="770" y="295"/>
            </Array>
          </mxGeometry>
        </mxCell>
        <mxCell id="right_spoke0_3_group" value="" style="group" vertex="1" connectable="0" parent="1">
          <mxGeometry x="920" y="370" width="400" height="70" as="geometry"/>
        </mxCell>
        <mxCell id="right_spoke0_3" style="shape=rectangle;rounded=0;whiteSpace=wrap;html=1;strokeColor=#CC6600;fontColor=#CC6600;fillColor=#f2f7fc;verticalAlign=top;align=left" vertex="1" parent="right_spoke0_3_group" value="Subscription: Spoke14-Subscription&#10;spoke14-vnet&#10;10.14.0.0/16">
          <mxGeometry x="0" y="0" width="400" height="50" as="geometry"/>
        </mxCell>
        <mxCell id="right_spoke0_3_image" style="shape=image;html=1;image=img/lib/azure2/networking/Virtual_Networks.svg;" vertex="1" parent="right_spoke0_3">
          <mxGeometry x="374" y="3.39" width="20" height="20" as="geometry"/>
        </mxCell>
        <mxCell id="edge_right_0_3" edge="1" source="hub_0" target="right_spoke0_3" style="edgeStyle=orthogonalEdgeStyle;rounded=1;strokeColor=#0078D4;strokeWidth=2;endArrow=block;startArrow=block;" parent="1">
          <mxGeometry relative="1" as="geometry">
            <Array as="points">
              <mxPoint x="770" y="395"/>
            </Array>
          </mxGeometry>
        </mxCell>
        <mxCell id="right_spoke0_4_group" value="" style="group" vertex="1" connectable="0" parent="1">
          <mxGeometry x="920" y="470" width="400" height="70" as="geometry"/>
        </mxCell>
        <mxCell id="right_spoke0_4" style="shape=rectangle;rounded=0;whiteSpace=wrap;html=1;strokeColor=#CC6600;fontColor=#CC6600;fillColor=#f2f7fc;verticalAlign=top;align=left" vertex="1" parent="right_spoke0_4_group" value="Subscription: Spoke15-Subscription&#10;spoke15-vnet&#10;10.15.0.0/16">
          <mxGeometry x="0" y="0" width="400" height="50" as="geometry"/>
        </mxCell>
        <mxCell id="right_spoke0_4_image" style="shape=image;html=1;image=img/lib/azure2/networking/Virtual_Networks.svg;" vertex="1" parent="right_spoke0_4">
          <mxGeometry x="374" y="3.39" width="20" height="20" as="geometry"/>
        </mxCell>
        <mxCell id="edge_right_0_4" edge="1" source="hub_0" target="right_spoke0_4" style="edgeStyle=orthogonalEdgeStyle;rounded=1;strokeColor=#0078D4;strokeWidth=2;endArrow=block;startArrow=block;" parent="1">
          <mxGeometry relative="1" as="geometry">
            <Array as="points">
              <mxPoint x="770" y="495"/>
            </Array>
          </mxGeometry>
        </mxCell>
        <mxCell id="right_spoke0_5_group" value="" style="group" vertex="1" connectable="0" parent="1">
          <mxGeometry x="920" y="570" width="400" height="70" as="geometry"/>
        </mxCell>
        <mxCell id="right_spoke0_5" style="shape=rectangle;rounded=0;whiteSpace=wrap;html=1;strokeColor=#CC6600;fontColor=#CC6600;fillColor=#f2f7fc;verticalAlign=top;align=left" vertex="1" parent="right_spoke0_5_group" value="Subscription: Spoke16-Subscription&#10;spoke16-vnet&#10;10.16.0.0/16">
          <mxGeometry x="0" y="0" width="400" height="50" as="geometry"/>
        </mxCell>
        <mxCell id="right_spoke0_5_image" style="shape=image;html=1;image=img/lib/azure2/networking/Virtual_Networks.svg;" vertex="1" parent="right_spoke0_5">
          <mxGeometry x="374" y="3.39" width="20" height="20" as="geometry"/>
        </mxCell>
        <mxCell id="edge_right_0_5" edge="1" source="hub_0" target="right_spoke0_5" style="edgeStyle=orthogonalEdgeStyle;rounded=1;strokeColor=#0078D4;strokeWidth=2;endArrow=block;startArrow=block;" parent="1">
          <mxGeometry relative="1" as="geometry">
            <Array as="points">
              <mxPoint x="770" y="595"/>
            </Array>
          </mxGeometry>
        </mxCell>
        <mxCell id="right_spoke0_6_group" value="" style="group" vertex="1" connectable="0" parent="1">
          <mxGeometry x="920" y="670" width="400" height="70" as="geometry"/>
        </mxCell>
        <mxCell id="right_spoke0_6" style="shape=rectangle;rounded=0;whiteSpace=wrap;html=1;strokeColor=#CC6600;fontColor=#CC6600;fillColor=#f2f7fc;verticalAlign=top;align=left" vertex="1" parent="right_spoke0_6_group" value="Subscription: Spoke17-Subscription&#10;spoke17-vnet&#10;10.17.0.0/16">
          <mxGeometry x="0" y="0" width="400" height="50" as="geometry"/>
        </mxCell>
        <mxCell id="right_spoke0_6_image" style="shape=image;html=1;image=img/lib/azure2/networking/Virtual_Networks.svg;" vertex="1" parent="right_spoke0_6">
          <mxGeometry x="374" y="3.39" width="20" height="20" as="geometry"/>
        </mxCell>
        <mxCell id="edge_right_0_6" edge="1" source="hub_0" target="right_spoke0_6" style="edgeStyle=orthogonalEdgeStyle;rounded=1;strokeColor=#0078D4;strokeWidth=2;endArrow=block;startArrow=block;" parent="1">
          <mxGeometry relative="1" as="geometry">
            <Array as="points">
              <mxPoint x="770" y="695"/>
            </Array>
          </mxGeometry>
        </mxCell>
        <mxCell id="right_spoke0_7_group" value="" style="group" vertex="1" connectable="0" parent="1">
          <mxGeometry x="920" y="770" width="400" height="70" as="geometry"/>
        </mxCell>
        <mxCell id="right_spoke0_7" style="shape=rectangle;rounded=0;whiteSpace=wrap;html=1;strokeColor=#CC6600;fontColor=#CC6600;fillColor=#f2f7fc;verticalAlign=top;align=left" vertex="1" parent="right_spoke0_7_group" value="Subscription: Spoke18-Subscription&#10;spoke18-vnet&#10;10.18.0.0/16">
          <mxGeometry x="0" y="0" width="400" height="50" as="geometry"/>
        </mxCell>
        <mxCell id="right_spoke0_7_image" style="shape=image;html=1;image=img/lib/azure2/networking/Virtual_Networks.svg;" vertex="1" parent="right_spoke0_7">
          <mxGeometry x="374" y="3.39" width="20" height="20" as="geometry"/>
        </mxCell>
        <mxCell id="edge_right_0_7" edge="1" source="hub_0" target="right_spoke0_7" style="edgeStyle=orthogonalEdgeStyle;rounded=1;strokeColor=#0078D4;strokeWidth=2;endArrow=block;startArrow=block;" parent="1">
          <mxGeometry relative="1" as="geometry">
            <Array as="points">
              <mxPoint x="770" y="795"/>
            </Array>
          </mxGeometry>
        </mxCell>
        <mxCell id="right_spoke0_8_group" value="" style="group" vertex="1" connectable="0" parent="1">
          <mxGeometry x="920" y="870" width="400" height="70" as="geometry"/>
        </mxCell>
        <mxCell id="right_spoke0_8" style="shape=rectangle;rounded=0;whiteSpace=wrap;html=1;strokeColor=#CC6600;fontColor=#CC6600;fillColor=#f2f7fc;verticalAlign=top;align=left" vertex="1" parent="right_spoke0_8_group" value="Subscription: Spoke19-Subscription&#10;spoke19-vnet&#10;10.19.0.0/16">
          <mxGeometry x="0" y="0" width="400" height="50" as="geometry"/>
        </mxCell>
        <mxCell id="right_spoke0_8_image" style="shape=image;html=1;image=img/lib/azure2/networking/Virtual_Networks.svg;" vertex="1" parent="right_spoke0_8">
          <mxGeometry x="374" y="3.39" width="20" height="20" as="geometry"/>
        </mxCell>
        <mxCell id="edge_right_0_8" edge="1" source="hub_0" target="right_spoke0_8" style="edgeStyle=orthogonalEdgeStyle;rounded=1;strokeColor=#0078D4;strokeWidth=2;endArrow=block;startArrow=block;" parent="1">
          <mxGeometry relative="1" as="geometry">
            <Array as="points">
              <mxPoint x="770" y="895"/>
            </Array>
          </mxGeometry>
        </mxCell>
        <mxCell id="right_spoke0_9_group" value="" style="group" vertex="1" connectable="0" parent="1">
          <mxGeometry x="920" y="970" width="400" height="70" as="geometry"/>
        </mxCell>
        <mxCell id="right_spoke0_9" style="shape=rectangle;rounded=0;whiteSpace=wrap;html=1;strokeColor=#CC6600;fontColor=#CC6600;fillColor=#f2f7fc;verticalAlign=top;align=left" vertex="1" parent="right_spoke0_9_group" value="Subscription: Spoke20-Subscription&#10;spoke20-vnet&#10;10.20.0.0/16">
          <mxGeometry x="0" y="0" width="400" height="50" as="geometry"/>
        </mxCell>
        <mxCell id="right_spoke0_9_image" style="shape=image;html=1;image=img/lib/azure2/networking/Virtual_Networks.svg;" vertex="1" parent="right_spoke0_9">
          <mxGeometry x="374" y="3.39" width="20" height="20" as="geometry"/>
        </mxCell>
        <mxCell id="edge_right_0_9" edge="1" source="hub_0" target="right_spoke0_9" style="edgeStyle=orthogonalEdgeStyle;rounded=1;strokeColor=#0078D4;strokeWidth=2;endArrow=block;startArrow=block;" parent="1">
          <mxGeometry relative="1" as="geometry">
            <Array as="points">
              <mxPoint x="770" y="995"/>
            </Array>
          </mxGeometry>
        </mxCell>
        <mxCell id="left_spoke0_0_group" value="" style="group" vertex="1" connectable="0" parent="1">
          <mxGeometry x="20" y="70" width="400" height="70" as="geometry"/>
        </mxCell>
        <mxCell id="left_spoke0_0" style="shape=rectangle;rounded=0;whiteSpace=wrap;html=1;strokeColor=#CC6600;fontColor=#CC6600;fillColor=#f2f7fc;verticalAlign=top;align=left" vertex="1" parent="left_spoke0_0_group" value="Subscription: Spoke1-Subscription&#10;spoke1-vnet&#10;10.1.0.0/16">
          <mxGeometry x="0" y="0" width="400" height="50" as="geometry"/>
        </mxCell>
        <mxCell id="left_spoke0_0_image" style="shape=image;html=1;image=img/lib/azure2/networking/Virtual_Networks.svg;" vertex="1" parent="left_spoke0_0">
          <mxGeometry x="374" y="3.39" width="20" height="20" as="geometry"/>
        </mxCell>
        <mxCell id="edge_left_0_0" edge="1" source="hub_0" target="left_spoke0_0" style="edgeStyle=orthogonalEdgeStyle;rounded=1;strokeColor=#0078D4;strokeWidth=2;endArrow=block;startArrow=block;" parent="1">
          <mxGeometry relative="1" as="geometry">
            <Array as="points">
              <mxPoint x="570" y="95"/>
            </Array>
          </mxGeometry>
        </mxCell>
        <mxCell id="left_spoke0_1_group" value="" style="group" vertex="1" connectable="0" parent="1">
          <mxGeometry x="20" y="170" width="400" height="70" as="geometry"/>
        </mxCell>
        <mxCell id="left_spoke0_1" style="shape=rectangle;rounded=0;whiteSpace=wrap;html=1;strokeColor=#CC6600;fontColor=#CC6600;fillColor=#f2f7fc;verticalAlign=top;align=left" vertex="1" parent="left_spoke0_1_group" value="Subscription: Spoke2-Subscription&#10;spoke2-vnet&#10;10.2.0.0/16">
          <mxGeometry x="0" y="0" width="400" height="50" as="geometry"/>
        </mxCell>
        <mxCell id="left_spoke0_1_image" style="shape=image;html=1;image=img/lib/azure2/networking/Virtual_Networks.svg;" vertex="1" parent="left_spoke0_1">
          <mxGeometry x="374" y="3.39" width="20" height="20" as="geometry"/>
        </mxCell>
        <mxCell id="edge_left_0_1" edge="1" source="hub_0" target="left_spoke0_1" style="edgeStyle=orthogonalEdgeStyle;rounded=1;strokeColor=#0078D4;strokeWidth=2;endArrow=block;startArrow=block;" parent="1">
          <mxGeometry relative="1" as="geometry">
            <Array as="points">
              <mxPoint x="570" y="195"/>
            </Array>
          </mxGeometry>
        </mxCell>
        <mxCell id="left_spoke0_2_group" value="" style="group" vertex="1" connectable="0" parent="1">
          <mxGeometry x="20" y="270" width="400" height="70" as="geometry"/>
        </mxCell>
        <mxCell id="left_spoke0_2" style="shape=rectangle;rounded=0;whiteSpace=wrap;html=1;strokeColor=#CC6600;fontColor=#CC6600;fillColor=#f2f7fc;verticalAlign=top;align=left" vertex="1" parent="left_spoke0_2_group" value="Subscription: Spoke3-Subscription&#10;spoke3-vnet&#10;10.3.0.0/16">
          <mxGeometry x="0" y="0" width="400" height="50" as="geometry"/>
        </mxCell>
        <mxCell id="left_spoke0_2_image" style="shape=image;html=1;image=img/lib/azure2/networking/Virtual_Networks.svg;" vertex="1" parent="left_spoke0_2">
          <mxGeometry x="374" y="3.39" width="20" height="20" as="geometry"/>
        </mxCell>
        <mxCell id="edge_left_0_2" edge="1" source="hub_0" target="left_spoke0_2" style="edgeStyle=orthogonalEdgeStyle;rounded=1;strokeColor=#0078D4;strokeWidth=2;endArrow=block;startArrow=block;" parent="1">
          <mxGeometry relative="1" as="geometry">
            <Array as="points">
              <mxPoint x="570" y="295"/>
            </Array>
          </mxGeometry>
        </mxCell>
        <mxCell id="left_spoke0_3_group" value="" style="group" vertex="1" connectable="0" parent="1">
          <mxGeometry x="20" y="370" width="400" height="70" as="geometry"/>
        </mxCell>
        <mxCell id="left_spoke0_3" style="shape=rectangle;rounded=0;whiteSpace=wrap;html=1;strokeColor=#CC6600;fontColor=#CC6600;fillColor=#f2f7fc;verticalAlign=top;align=left" vertex="1" parent="left_spoke0_3_group" value="Subscription: Spoke4-Subscription&#10;spoke4-vnet&#10;10.4.0.0/16">
          <mxGeometry x="0" y="0" width="400" height="50" as="geometry"/>
        </mxCell>
        <mxCell id="left_spoke0_3_image" style="shape=image;html=1;image=img/lib/azure2/networking/Virtual_Networks.svg;" vertex="1" parent="left_spoke0_3">
          <mxGeometry x="374" y="3.39" width="20" height="20" as="geometry"/>
        </mxCell>
        <mxCell id="edge_left_0_3" edge="1" source="hub_0" target="left_spoke0_3" style="edgeStyle=orthogonalEdgeStyle;rounded=1;strokeColor=#0078D4;strokeWidth=2;endArrow=block;startArrow=block;" parent="1">
          <mxGeometry relative="1" as="geometry">
            <Array as="points">
              <mxPoint x="570" y="395"/>
            </Array>
          </mxGeometry>
        </mxCell>
        <mxCell id="left_spoke0_4_group" value="" style="group" vertex="1" connectable="0" parent="1">
          <mxGeometry x="20" y="470" width="400" height="70" as="geometry"/>
        </mxCell>
        <mxCell id="left_spoke0_4" style="shape=rectangle;rounded=0;whiteSpace=wrap;html=1;strokeColor=#CC6600;fontColor=#CC6600;fillColor=#f2f7fc;verticalAlign=top;align=left" vertex="1" parent="left_spoke0_4_group" value="Subscription: Spoke5-Subscription&#10;spoke5-vnet&#10;10.5.0.0/16">
          <mxGeometry x="0" y="0" width="400" height="50" as="geometry"/>
        </mxCell>
        <mxCell id="left_spoke0_4_image" style="shape=image;html=1;image=img/lib/azure2/networking/Virtual_Networks.svg;" vertex="1" parent="left_spoke0_4">
          <mxGeometry x="374" y="3.39" width="20" height="20" as="geometry"/>
        </mxCell>
        <mxCell id="edge_left_0_4" edge="1" source="hub_0" target="left_spoke0_4" style="edgeStyle=orthogonalEdgeStyle;rounded=1;strokeColor=#0078D4;strokeWidth=2;endArrow=block;startArrow=block;" parent="1">
          <mxGeometry relative="1" as="geometry">
            <Array as="points">
              <mxPoint x="570" y="495"/>
            </Array>
          </mxGeometry>
        </mxCell>
        <mxCell id="left_spoke0_5_group" value="" style="group" vertex="1" connectable="0" parent="1">
          <mxGeometry x="20" y="570" width="400" height="70" as="geometry"/>
        </mxCell>
        <mxCell id="left_spoke0_5" style="shape=rectangle;rounded=0;whiteSpace=wrap;html=1;strokeColor=#CC6600;fontColor=#CC6600;fillColor=#f2f7fc;verticalAlign=top;align=left" vertex="1" parent="left_spoke0_5_group" value="Subscription: Spoke6-Subscription&#10;spoke6-vnet&#10;10.6.0.0/16">
          <mxGeometry x="0" y="0" width="400" height="50" as="geometry"/>
        </mxCell>
        <mxCell id="left_spoke0_5_image" style="shape=image;html=1;image=img/lib/azure2/networking/Virtual_Networks.svg;" vertex="1" parent="left_spoke0_5">
          <mxGeometry x="374" y="3.39" width="20" height="20" as="geometry"/>
        </mxCell>
        <mxCell id="left_spoke0_5_vpn_image" style="shape=image;html=1;image=img/lib/azure2/networking/Virtual_Network_Gateways.svg;" vertex="1" parent="left_spoke0_5">
          <mxGeometry x="349" y="3.39" width="20" height="20" as="geometry"/>
        </mxCell>
        <mxCell id="edge_left_0_5" edge="1" source="hub_0" target="left_spoke0_5" style="edgeStyle=orthogonalEdgeStyle;rounded=1;strokeColor=#0078D4;strokeWidth=2;endArrow=block;startArrow=block;" parent="1">
          <mxGeometry relative="1" as="geometry">
            <Array as="points">
              <mxPoint x="570" y="595"/>
            </Array>
          </mxGeometry>
        </mxCell>
        <mxCell id="left_spoke0_6_group" value="" style="group" vertex="1" connectable="0" parent="1">
          <mxGeometry x="20" y="670" width="400" height="70" as="geometry"/>
        </mxCell>
        <mxCell id="left_spoke0_6" style="shape=rectangle;rounded=0;whiteSpace=wrap;html=1;strokeColor=#CC6600;fontColor=#CC6600;fillColor=#f2f7fc;verticalAlign=top;align=left" vertex="1" parent="left_spoke0_6_group" value="Subscription: Spoke7-Subscription&#10;spoke7-vnet&#10;10.7.0.0/16">
          <mxGeometry x="0" y="0" width="400" height="50" as="geometry"/>
        </mxCell>
        <mxCell id="left_spoke0_6_image" style="shape=image;html=1;image=img/lib/azure2/networking/Virtual_Networks.svg;" vertex="1" parent="left_spoke0_6">
          <mxGeometry x="374" y="3.39" width="20" height="20" as="geometry"/>
        </mxCell>
        <mxCell id="edge_left_0_6" edge="1" source="hub_0" target="left_spoke0_6" style="edgeStyle=orthogonalEdgeStyle;rounded=1;strokeColor=#0078D4;strokeWidth=2;endArrow=block;startArrow=block;" parent="1">
          <mxGeometry relative="1" as="geometry">
            <Array as="points">
              <mxPoint x="570" y="695"/>
            </Array>
          </mxGeometry>
        </mxCell>
        <mxCell id="left_spoke0_7_group" value="" style="group" vertex="1" connectable="0" parent="1">
          <mxGeometry x="20" y="770" width="400" height="70" as="geometry"/>
        </mxCell>
        <mxCell id="left_spoke0_7" style="shape=rectangle;rounded=0;whiteSpace=wrap;html=1;strokeColor=#CC6600;fontColor=#CC6600;fillColor=#f2f7fc;verticalAlign=top;align=left" vertex="1" parent="left_spoke0_7_group" value="Subscription: Spoke8-Subscription&#10;spoke8-vnet&#10;10.8.0.0/16">
          <mxGeometry x="0" y="0" width="400" height="50" as="geometry"/>
        </mxCell>
        <mxCell id="left_spoke0_7_image" style="shape=image;html=1;image=img/lib/azure2/networking/Virtual_Networks.svg;" vertex="1" parent="left_spoke0_7">
          <mxGeometry x="374" y="3.39" width="20" height="20" as="geometry"/>
        </mxCell>
        <mxCell id="edge_left_0_7" edge="1" source="hub_0" target="left_spoke0_7" style="edgeStyle=orthogonalEdgeStyle;rounded=1;strokeColor=#0078D4;strokeWidth=2;endArrow=block;startArrow=block;" parent="1">
          <mxGeometry relative="1" as="geometry">
            <Array as="points">
              <mxPoint x="570" y="795"/>
            </Array>
          </mxGeometry>
        </mxCell>
        <mxCell id="left_spoke0_8_group" value="" style="group" vertex="1" connectable="0" parent="1">
          <mxGeometry x="20" y="870" width="400" height="70" as="geometry"/>
        </mxCell>
        <mxCell id="left_spoke0_8" style="shape=rectangle;rounded=0;whiteSpace=wrap;html=1;strokeColor=#CC6600;fontColor=#CC6600;fillColor=#f2f7fc;verticalAlign=top;align=left" vertex="1" parent="left_spoke0_8_group" value="Subscription: Spoke9-Subscription&#10;spoke9-vnet&#10;10.9.0.0/16">
          <mxGeometry x="0" y="0" width="400" height="50" as="geometry"/>
        </mxCell>
        <mxCell id="left_spoke0_8_image" style="shape=image;html=1;image=img/lib/azure2/networking/Virtual_Networks.svg;" vertex="1" parent="left_spoke0_8">
          <mxGeometry x="374" y="3.39" width="20" height="20" as="geometry"/>
        </mxCell>
        <mxCell id="edge_left_0_8" edge="1" source="hub_0" target="left_spoke0_8" style="edgeStyle=orthogonalEdgeStyle;rounded=1;strokeColor=#0078D4;strokeWidth=2;endArrow=block;startArrow=block;" parent="1">
          <mxGeometry relative="1" as="geometry">
            <Array as="points">
              <mxPoint x="570" y="895"/>
            </Array>
          </mxGeometry>
        </mxCell>
        <mxCell id="left_spoke0_9_group" value="" style="group" vertex="1" connectable="0" parent="1">
          <mxGeometry x="20" y="970" width="400" height="70" as="geometry"/>
        </mxCell>
        <mxCell id="left_spoke0_9" style="shape=rectangle;rounded=0;whiteSpace=wrap;html=1;strokeColor=#CC6600;fontColor=#CC6600;fillColor=#f2f7fc;verticalAlign=top;align=left" vertex="1" parent="left_spoke0_9_group" value="Subscription: Spoke10-Subscription&#10;spoke10-vnet&#10;10.10.0.0/16">
          <mxGeometry x="0" y="0" width="400" height="50" as="geometry"/>
        </mxCell>
        <mxCell id="left_spoke0_9_image" style="shape=image;html=1;image=img/lib/azure2/networking/Virtual_Networks.svg;" vertex="1" parent="left_spoke0_9">
          <mxGeometry x="374" y="3.39" width="20" height="20" as="geometry"/>
        </mxCell>
        <mxCell id="edge_left_0_9" edge="1" source="hub_0" target="left_spoke0_9" style="edgeStyle=orthogonalEdgeStyle;rounded=1;strokeColor=#0078D4;strokeWidth=2;endArrow=block;startArrow=block;" parent="1">
          <mxGeometry relative="1" as="geometry">
            <Array as="points">
              <mxPoint x="570" y="995"/>
            </Array>
          </mxGeometry>
        </mxCell>
        <mxCell id="nonpeered_spoke0_group" value="" style="group" vertex="1" connectable="0" parent="1">
          <mxGeometry x="20" y="1220" width="400" height="70" as="geometry"/>
        </mxCell>
        <mxCell id="nonpeered_spoke0" style="shape=rectangle;rounded=0;whiteSpace=wrap;html=1;strokeColor=gray;fontColor=gray;fillColor=#f5f5f5;verticalAlign=top;align=left" vertex="1" parent="nonpeered_spoke0_group" value="Subscription: Unpeered1-Subscription&#10;unpeered1-vnet&#10;10.51.0.0/16">
          <mxGeometry x="0" y="0" width="400" height="50" as="geometry"/>
        </mxCell>
        <mxCell id="nonpeered_spoke0_image" style="shape=image;html=1;image=img/lib/azure2/networking/Virtual_Networks.svg;" vertex="1" parent="nonpeered_spoke0">
          <mxGeometry x="374" y="3.39" width="20" height="20" as="geometry"/>
        </mxCell>
        <mxCell id="nonpeered_spoke1_group" value="" style="group" vertex="1" connectable="0" parent="1">
          <mxGeometry x="470" y="1220" width="400" height="70" as="geometry"/>
        </mxCell>
        <mxCell id="nonpeered_spoke1" style="shape=rectangle;rounded=0;whiteSpace=wrap;html=1;strokeColor=gray;fontColor=gray;fillColor=#f5f5f5;verticalAlign=top;align=left" vertex="1" parent="nonpeered_spoke1_group" value="Subscription: Unpeered2-Subscription&#10;unpeered2-vnet&#10;10.52.0.0/16">
          <mxGeometry x="0" y="0" width="400" height="50" as="geometry"/>
        </mxCell>
        <mxCell id="nonpeered_spoke1_image" style="shape=image;html=1;image=img/lib/azure2/networking/Virtual_Networks.svg;" vertex="1" parent="nonpeered_spoke1">
          <mxGeometry x="374" y="3.39" width="20" height="20" as="geometry"/>
        </mxCell>
        <mxCell id="nonpeered_spoke2_group" value="" style="group" vertex="1" connectable="0" parent="1">
          <mxGeometry x="20" y="1290" width="400" height="70" as="geometry"/>
        </mxCell>
        <mxCell id="nonpeered_spoke2" style="shape=rectangle;rounded=0;whiteSpace=wrap;html=1;strokeColor=gray;fontColor=gray;fillColor=#f5f5f5;verticalAlign=top;align=left" vertex="1" parent="nonpeered_spoke2_group" value="Subscription: Unpeered3-Subscription&#10;unpeered3-vnet&#10;10.53.0.0/16">
          <mxGeometry x="0" y="0" width="400" height="50" as="geometry"/>
        </mxCell>
        <mxCell id="nonpeered_spoke2_image" style="shape=image;html=1;image=img/lib/azure2/networking/Virtual_Networks.svg;" vertex="1" parent="nonpeered_spoke2">
          <mxGeometry x="374" y="3.39" width="20" height="20" as="geometry"/>
        </mxCell>
        <mxCell id="nonpeered_spoke3_group" value="" style="group" vertex="1" connectable="0" parent="1">
          <mxGeometry x="470" y="1290" width="400" height="70" as="geometry"/>
        </mxCell>
        <mxCell id="nonpeered_spoke3" style="shape=rectangle;rounded=0;whiteSpace=wrap;html=1;strokeColor=gray;fontColor=gray;fillColor=#f5f5f5;verticalAlign=top;align=left" vertex="1" parent="nonpeered_spoke3_group" value="Subscription: Unpeered4-Subscription&#10;unpeered4-vnet&#10;10.54.0.0/16">
          <mxGeometry x="0" y="0" width="400" height="50" as="geometry"/>
        </mxCell>
        <mxCell id="nonpeered_spoke3_image" style="shape=image;html=1;image=img/lib/azure2/networking/Virtual_Networks.svg;" vertex="1" parent="nonpeered_spoke3">
          <mxGeometry x="374" y="3.39" width="20" height="20" as="geometry"/>
        </mxCell>
        <mxCell id="nonpeered_spoke4_group" value="" style="group" vertex="1" connectable="0" parent="1">
          <mxGeometry x="20" y="1360" width="400" height="70" as="geometry"/>
        </mxCell>
        <mxCell id="nonpeered_spoke4" style="shape=rectangle;rounded=0;whiteSpace=wrap;html=1;strokeColor=gray;fontColor=gray;fillColor=#f5f5f5;verticalAlign=top;align=left" vertex="1" parent="nonpeered_spoke4_group" value="Subscription: Unpeered5-Subscription&#10;unpeered5-vnet&#10;10.55.0.0/16">
          <mxGeometry x="0" y="0" width="400" height="50" as="geometry"/>
        </mxCell>
        <mxCell id="nonpeered_spoke4_image" style="shape=image;html=1;image=img/lib/azure2/networking/Virtual_Networks.svg;" vertex="1" parent="nonpeered_spoke4">
          <mxGeometry x="374" y="3.39" width="20" height="20" as="geometry"/>
        </mxCell>
        <mxCell id="peering_edge_1000" edge="1" source="left_spoke0_0" target="left_spoke0_1" style="edgeStyle=orthogonalEdgeStyle;rounded=1;strokeColor=#0078D4;strokeWidth=2;endArrow=block;startArrow=block;" parent="1">
          <mxGeometry relative="1" as="geometry"/>
        </mxCell>
        <mxCell id="peering_edge_1001" edge="1" source="left_spoke0_1" target="left_spoke0_0" style="edgeStyle=orthogonalEdgeStyle;rounded=1;strokeColor=#0078D4;strokeWidth=2;endArrow=block;startArrow=block;" parent="1">
          <mxGeometry relative="1" as="geometry"/>
        </mxCell>
        <mxCell id="peering_edge_1002" edge="1" source="left_spoke0_2" target="left_spoke0_3" style="edgeStyle=orthogonalEdgeStyle;rounded=1;strokeColor=#0078D4;strokeWidth=2;endArrow=block;startArrow=block;" parent="1">
          <mxGeometry relative="1" as="geometry"/>
        </mxCell>
        <mxCell id="peering_edge_1003" edge="1" source="left_spoke0_3" target="left_spoke0_2" style="edgeStyle=orthogonalEdgeStyle;rounded=1;strokeColor=#0078D4;strokeWidth=2;endArrow=block;startArrow=block;" parent="1">
          <mxGeometry relative="1" as="geometry"/>
        </mxCell>
        <mxCell id="peering_edge_1004" edge="1" source="left_spoke0_9" target="right_spoke0_2" style="edgeStyle=orthogonalEdgeStyle;rounded=1;strokeColor=#0078D4;strokeWidth=2;endArrow=block;startArrow=block;" parent="1">
          <mxGeometry relative="1" as="geometry"/>
        </mxCell>
        <mxCell id="peering_edge_1005" edge="1" source="left_spoke0_9" target="right_spoke0_8" style="edgeStyle=orthogonalEdgeStyle;rounded=1;strokeColor=#0078D4;strokeWidth=2;endArrow=block;startArrow=block;" parent="1">
          <mxGeometry relative="1" as="geometry"/>
        </mxCell>
        <mxCell id="peering_edge_1006" edge="1" source="right_spoke0_2" target="left_spoke0_9" style="edgeStyle=orthogonalEdgeStyle;rounded=1;strokeColor=#0078D4;strokeWidth=2;endArrow=block;startArrow=block;" parent="1">
          <mxGeometry relative="1" as="geometry"/>
        </mxCell>
        <mxCell id="peering_edge_1007" edge="1" source="right_spoke0_8" target="left_spoke0_9" style="edgeStyle=orthogonalEdgeStyle;rounded=1;strokeColor=#0078D4;strokeWidth=2;endArrow=block;startArrow=block;" parent="1">
          <mxGeometry relative="1" as="geometry"/>
        </mxCell>
      </root>
    </mxGraphModel>
  </diagram>
</mxfile>
